<svg width="20" height="20" viewBox="0 0 20 20" fill="none" xmlns="http://www.w3.org/2000/svg">
<path fill-rule="evenodd" clip-rule="evenodd" d="M9.3787 2.00526C9.79363 2.50883 10 2.90908 10 2.90908C10 2.90908 10.2064 2.50883 10.6213 2.00526C11.325 1.15122 12.6286 0 14.5429 0C17.0159 0 18.9742 2.00636 18.9995 4.40044C19.0506 9.37 14.9338 12.904 10.4219 15.874C10.2975 15.9561 10.1505 16 10 16C9.84954 16 9.70256 15.9561 9.57815 15.874C5.06573 12.904 0.948919 9.37 1.00048 4.40044C1.02579 2.00636 2.98412 0 5.45712 0C7.37137 0 8.67498 1.15122 9.3787 2.00526ZM9.02837 16.7093C9.31765 16.8999 9.6561 17 10 17C10.3439 17 10.6824 16.8999 10.9717 16.7093C13.2502 15.2095 15.5042 13.5204 17.1853 11.5329C18.8787 9.5309 20.0282 7.18054 19.9995 4.39016C19.9685 1.45668 17.5727 -1 14.5429 -1C12.678 -1 11.3069 -0.103615 10.4367 0.73417C10.2761 0.88885 10.1306 1.04325 10 1.19228C9.86944 1.04325 9.72392 0.88885 9.56326 0.73417C8.69313 -0.103615 7.32196 -1 5.45712 -1C2.42727 -1 0.0315485 1.45639 0.000534688 4.38987C-0.0284164 7.18028 1.12092 9.5309 2.81433 11.5329C4.49539 13.5203 6.74972 15.2096 9.02837 16.7093Z" fill="#9F9F9F" 
transform="translate(0, 2)"/>
</svg>
