<svg width="20" height="9" viewBox="0 0 20 9" fill="none" xmlns="http://www.w3.org/2000/svg">
<path fill-rule="evenodd" clip-rule="evenodd" d="M18.8391 0.600701C18.6187 0.434604 18.3054 0.478549 18.1392 0.698807L18.1354 0.703693C18.1316 0.708627 18.1251 0.716899 18.1159 0.728293C18.0976 0.751083 18.0687 0.786337 18.0292 0.832314C17.9502 0.924299 17.8289 1.05901 17.6654 1.22259C17.3382 1.54998 16.8435 1.99143 16.1819 2.43724C14.8604 3.32778 12.8753 4.23477 10.2203 4.28957C7.57512 4.34417 5.47922 3.44004 4.03897 2.51669C3.31891 2.05505 2.76575 1.5904 2.39431 1.24302C2.20875 1.06948 2.06905 0.925694 1.97705 0.826864C1.93107 0.777465 1.89705 0.739351 1.87522 0.71443C1.86431 0.701971 1.85646 0.692816 1.85168 0.687203L1.84683 0.681473L1.84618 0.680697C1.67003 0.468454 1.35521 0.438923 1.14265 0.614834C0.929915 0.790895 0.900184 1.10608 1.07624 1.31882L1.46144 1.00003C1.07624 1.31882 1.07693 1.31964 1.07693 1.31964L1.07791 1.32082L1.08077 1.32424L1.09007 1.33524C1.09786 1.3444 1.10882 1.35715 1.12293 1.37325C1.15113 1.40546 1.19193 1.4511 1.2451 1.50822C1.35142 1.62243 1.50739 1.78273 1.71126 1.97339C2.06327 2.30259 2.55959 2.72373 3.19116 3.15471L1.07009 6.25071C0.934998 6.44791 1.00071 6.70767 1.21686 6.83092C1.43302 6.95416 1.71776 6.89422 1.85286 6.69702L3.95068 3.63495C4.88736 4.18213 6.04352 4.697 7.39811 5.00342L6.54935 8.48777C6.49406 8.71477 6.65095 8.93969 6.89978 8.99013C7.14861 9.04058 7.39515 8.89745 7.45044 8.67045L8.30289 5.17095C8.91444 5.25942 9.56099 5.30339 10.2409 5.28936C10.9139 5.27547 11.548 5.21101 12.1431 5.10794L13.0108 8.67045C13.0661 8.89745 13.3127 9.04058 13.5615 8.99013C13.8103 8.93969 13.9672 8.71477 13.9119 8.48777L13.0421 4.9169C14.2363 4.61511 15.2493 4.16307 16.0802 3.68032L18.1469 6.69702C18.282 6.89422 18.5667 6.95416 18.7829 6.83092C18.999 6.70767 19.0648 6.44791 18.9297 6.25071L16.8392 3.19942C17.5134 2.73502 18.0243 2.27801 18.3727 1.92952C18.5553 1.74676 18.6936 1.59347 18.7877 1.48402C18.8347 1.42928 18.8707 1.38547 18.8957 1.35437C18.9082 1.33881 18.9179 1.32644 18.9249 1.31746L18.9333 1.30656L18.9359 1.30307L18.9369 1.30183L18.9376 1.30092C19.1038 1.08038 19.0597 0.76688 18.8391 0.600701Z" fill="#DBDBDB"/>
</svg>
