<?xml version="1.0" encoding="UTF-8"?>
<!DOCTYPE svg PUBLIC "-//W3C//DTD SVG 1.1//EN" "http://www.w3.org/Graphics/SVG/1.1/DTD/svg11.dtd">
<svg xmlns="http://www.w3.org/2000/svg" version="1.1" width="500px" height="500px" style="shape-rendering:geometricPrecision; text-rendering:geometricPrecision; image-rendering:optimizeQuality; fill-rule:evenodd; clip-rule:evenodd" xmlns:xlink="http://www.w3.org/1999/xlink">
<g><path style="opacity:0.953" fill="#5fadfa" d="M 140.5,35.5 C 135.367,36.6649 130.034,37.3315 124.5,37.5C 129.583,35.9216 134.916,35.2549 140.5,35.5 Z"/></g>
<g><path style="opacity:1" fill="#007ffe" d="M 140.5,35.5 C 145.833,35.5 151.167,35.5 156.5,35.5C 156.611,36.1174 156.944,36.6174 157.5,37C 162.489,37.4993 167.489,37.6659 172.5,37.5C 172.833,37.5 173.167,37.5 173.5,37.5C 175.78,39.2227 178.447,39.8893 181.5,39.5C 181.611,40.1174 181.944,40.6174 182.5,41C 191.759,43.1244 200.759,46.1244 209.5,50C 218.817,54.657 227.817,59.8237 236.5,65.5C 238.81,67.1345 241.143,68.8012 243.5,70.5C 244.314,72.2726 245.648,72.7726 247.5,72C 249.041,70.6288 250.375,69.1288 251.5,67.5C 262.512,60.3258 273.846,53.6591 285.5,47.5C 289.54,47.1095 293.207,45.7761 296.5,43.5C 300.292,43.2736 303.959,42.4403 307.5,41C 308.056,40.6174 308.389,40.1174 308.5,39.5C 309.167,39.5 309.833,39.5 310.5,39.5C 313.829,39.7847 316.829,39.1181 319.5,37.5C 328.155,36.9175 336.822,36.5841 345.5,36.5C 354.031,37.2 362.698,38.0333 371.5,39C 379.606,40.893 387.606,43.0597 395.5,45.5C 402.837,49.8559 410.504,53.8559 418.5,57.5C 425.006,62.2566 431.34,67.2566 437.5,72.5C 439.5,74.1667 441.5,75.8333 443.5,77.5C 443.427,79.0269 444.094,80.0269 445.5,80.5C 449.126,83.0948 451.792,86.4281 453.5,90.5C 455.037,93.6016 457.037,96.2683 459.5,98.5C 459.427,100.027 460.094,101.027 461.5,101.5C 461.998,104.326 463.331,106.66 465.5,108.5C 467.005,113.497 469.005,118.164 471.5,122.5C 472.401,127.779 474.068,132.779 476.5,137.5C 478.102,141.239 479.102,145.239 479.5,149.5C 479.171,152.228 479.837,154.562 481.5,156.5C 483.368,166.699 484.035,177.032 483.5,187.5C 479.915,223.452 469.915,257.452 453.5,289.5C 451.331,291.34 449.998,293.674 449.5,296.5C 448.094,296.973 447.427,297.973 447.5,299.5C 446.66,301.853 445.326,303.853 443.5,305.5C 437.117,313.886 431.117,322.553 425.5,331.5C 425.5,332.167 425.167,332.5 424.5,332.5C 422.738,333.262 421.738,334.596 421.5,336.5C 419.885,339.45 417.885,342.116 415.5,344.5C 412.944,345.543 410.777,347.21 409,349.5C 403.934,355.059 399.1,360.725 394.5,366.5C 392.167,369.5 389.5,372.167 386.5,374.5C 379.863,379.802 373.53,385.469 367.5,391.5C 364.911,392.419 362.911,394.086 361.5,396.5C 359.251,397.08 357.585,398.413 356.5,400.5C 355.5,402.167 354.167,403.5 352.5,404.5C 350.745,405.072 349.078,405.906 347.5,407C 340.644,412.364 333.977,417.864 327.5,423.5C 323.041,427.897 318.041,431.564 312.5,434.5C 301.888,441.116 291.555,448.116 281.5,455.5C 276.074,460.208 269.741,463.208 262.5,464.5C 256.32,464.983 250.154,465.65 244,466.5C 237.75,465.865 231.583,464.865 225.5,463.5C 220.597,462.048 215.93,460.048 211.5,457.5C 211.063,455.926 210.063,454.759 208.5,454C 198.11,447.146 187.776,440.313 177.5,433.5C 175.147,432.66 173.147,431.326 171.5,429.5C 166.786,425.454 161.786,421.788 156.5,418.5C 154.557,415.529 151.891,413.529 148.5,412.5C 145.129,409.129 141.463,406.129 137.5,403.5C 130.403,396.127 122.737,389.461 114.5,383.5C 105.833,374.167 96.8333,365.167 87.5,356.5C 83.1574,351.792 78.8241,347.125 74.5,342.5C 73.9202,340.251 72.5869,338.585 70.5,337.5C 67.5892,332.254 63.9225,327.587 59.5,323.5C 58.0755,320.232 56.4089,317.066 54.5,314C 53.8699,312.69 52.8699,311.856 51.5,311.5C 43.5806,298.309 36.2473,284.976 29.5,271.5C 24.3881,257.815 19.8881,243.815 16,229.5C 9.16395,198.234 8.83062,166.901 15,135.5C 17.1938,127.725 20.0272,120.391 23.5,113.5C 23.6596,111.847 24.3263,110.514 25.5,109.5C 27.6689,107.66 29.0023,105.326 29.5,102.5C 29.6596,100.847 30.3263,99.5137 31.5,98.5C 39.397,88.2628 48.0636,78.5962 57.5,69.5C 57.5,68.8333 57.8333,68.5 58.5,68.5C 61.2682,66.9128 63.9348,65.0795 66.5,63C 67.8228,62.1841 68.4894,61.0174 68.5,59.5C 69.6049,58.3995 70.9382,57.7329 72.5,57.5C 75.9194,56.2922 79.2527,54.7922 82.5,53C 84.0931,52.0513 85.4264,50.8846 86.5,49.5C 87.5137,48.3263 88.847,47.6596 90.5,47.5C 92.1992,47.6602 93.8659,47.4935 95.5,47C 101.983,44.5581 108.317,42.0581 114.5,39.5C 117.544,37.9886 120.878,37.322 124.5,37.5C 130.034,37.3315 135.367,36.6649 140.5,35.5 Z"/></g>
<g><path style="opacity:0.967" fill="#5aa9fb" d="M 156.5,35.5 C 162.069,35.376 167.402,36.0427 172.5,37.5C 167.489,37.6659 162.489,37.4993 157.5,37C 156.944,36.6174 156.611,36.1174 156.5,35.5 Z"/></g>
<g><path style="opacity:0.867" fill="#53a5f6" d="M 173.5,37.5 C 176.373,37.8023 179.039,38.469 181.5,39.5C 178.447,39.8893 175.78,39.2227 173.5,37.5 Z"/></g>
<g><path style="opacity:0.576" fill="#4ca8fe" d="M 319.5,37.5 C 316.829,39.1181 313.829,39.7847 310.5,39.5C 313.273,38.3428 316.273,37.6761 319.5,37.5 Z"/></g>
<g><path style="opacity:0.863" fill="#52a4fa" d="M 395.5,45.5 C 387.606,43.0597 379.606,40.893 371.5,39C 362.698,38.0333 354.031,37.2 345.5,36.5C 362.98,35.1299 379.647,38.1299 395.5,45.5 Z"/></g>
<g><path style="opacity:0.953" fill="#42a1fc" d="M 308.5,39.5 C 308.389,40.1174 308.056,40.6174 307.5,41C 303.959,42.4403 300.292,43.2736 296.5,43.5C 300.215,41.5949 304.215,40.2616 308.5,39.5 Z"/></g>
<g><path style="opacity:0.604" fill="#52a5f9" d="M 114.5,39.5 C 108.317,42.0581 101.983,44.5581 95.5,47C 93.8659,47.4935 92.1992,47.6602 90.5,47.5C 97.9486,43.4615 105.949,40.7949 114.5,39.5 Z"/></g>
<g><path style="opacity:1" fill="#3e9bfa" d="M 296.5,43.5 C 293.207,45.7761 289.54,47.1095 285.5,47.5C 288.797,45.3987 292.463,44.0653 296.5,43.5 Z"/></g>
<g><path style="opacity:0.714" fill="#5eacfa" d="M 395.5,45.5 C 403.92,48.2084 411.586,52.2084 418.5,57.5C 410.504,53.8559 402.837,49.8559 395.5,45.5 Z"/></g>
<g><path style="opacity:0.678" fill="#6cb2fb" d="M 181.5,39.5 C 202.119,43.646 220.452,52.3127 236.5,65.5C 227.817,59.8237 218.817,54.657 209.5,50C 200.759,46.1244 191.759,43.1244 182.5,41C 181.944,40.6174 181.611,40.1174 181.5,39.5 Z"/></g>
<g><path style="opacity:0.529" fill="#5daefe" d="M 86.5,49.5 C 85.4264,50.8846 84.0931,52.0513 82.5,53C 79.2527,54.7922 75.9194,56.2922 72.5,57.5C 76.5067,53.8255 81.1734,51.1588 86.5,49.5 Z"/></g>
<g><path style="opacity:0.459" fill="#89bff9" d="M 285.5,47.5 C 273.846,53.6591 262.512,60.3258 251.5,67.5C 261.078,58.3581 272.412,51.6914 285.5,47.5 Z"/></g>
<g><path style="opacity:0.216" fill="#64b1fe" d="M 68.5,59.5 C 68.4894,61.0174 67.8228,62.1841 66.5,63C 63.9348,65.0795 61.2682,66.9128 58.5,68.5C 61.1588,64.8457 64.4922,61.8457 68.5,59.5 Z"/></g>
<g><path style="opacity:0.075" fill="#60aaf5" d="M 418.5,57.5 C 426.114,60.8155 432.447,65.8155 437.5,72.5C 431.34,67.2566 425.006,62.2566 418.5,57.5 Z"/></g>
<g><path style="opacity:0.878" fill="#b3d4fb" d="M 251.5,67.5 C 250.375,69.1288 249.041,70.6288 247.5,72C 245.648,72.7726 244.314,72.2726 243.5,70.5C 246.406,70.0435 249.072,69.0435 251.5,67.5 Z"/></g>
<g><path style="opacity:0.58" fill="#82b6ef" d="M 443.5,77.5 C 444.906,77.9731 445.573,78.9731 445.5,80.5C 444.094,80.0269 443.427,79.0269 443.5,77.5 Z"/></g>
<g><path style="opacity:0.592" fill="#6ab1fd" d="M 57.5,69.5 C 48.0636,78.5962 39.397,88.2628 31.5,98.5C 38.0292,86.968 46.6958,77.3013 57.5,69.5 Z"/></g>
<g><path style="opacity:0.514" fill="#60acf8" d="M 453.5,90.5 C 456.647,92.3129 458.647,94.9796 459.5,98.5C 457.037,96.2683 455.037,93.6016 453.5,90.5 Z"/></g>
<g><path style="opacity:0.184" fill="#86b7ef" d="M 459.5,98.5 C 460.906,98.9731 461.573,99.9731 461.5,101.5C 460.094,101.027 459.427,100.027 459.5,98.5 Z"/></g>
<g><path style="opacity:0.239" fill="#81bcfa" d="M 461.5,101.5 C 463.588,103.336 464.921,105.669 465.5,108.5C 463.331,106.66 461.998,104.326 461.5,101.5 Z"/></g>
<g><path style="opacity:0.643" fill="#53a5f8" d="M 29.5,102.5 C 29.0023,105.326 27.6689,107.66 25.5,109.5C 26.0787,106.669 27.412,104.336 29.5,102.5 Z"/></g>
<g><path style="opacity:0.388" fill="#7bbcff" d="M 465.5,108.5 C 468.568,112.644 470.568,117.31 471.5,122.5C 469.005,118.164 467.005,113.497 465.5,108.5 Z"/></g>
<g><path style="opacity:0.906" fill="#4ca6ff" d="M 471.5,122.5 C 474.14,127.085 475.806,132.085 476.5,137.5C 474.068,132.779 472.401,127.779 471.5,122.5 Z"/></g>
<g><path style="opacity:0.725" fill="#89bcf5" d="M 479.5,149.5 C 480.612,151.599 481.279,153.933 481.5,156.5C 479.837,154.562 479.171,152.228 479.5,149.5 Z"/></g>
<g><path style="opacity:0.851" fill="#73b3f9" d="M 483.5,187.5 C 481.487,223.222 472.153,256.889 455.5,288.5C 455.043,289.298 454.376,289.631 453.5,289.5C 469.915,257.452 479.915,223.452 483.5,187.5 Z"/></g>
<g><path style="opacity:0.22" fill="#69aff9" d="M 23.5,113.5 C 20.0272,120.391 17.1938,127.725 15,135.5C 8.83062,166.901 9.16395,198.234 16,229.5C 19.8881,243.815 24.3881,257.815 29.5,271.5C 18.5213,249.939 12.0213,226.939 10,202.5C 9.33333,186.167 9.33333,169.833 10,153.5C 11.3165,143.583 13.6498,133.917 17,124.5C 18.1723,120.142 20.3389,116.475 23.5,113.5 Z"/></g>
<g><path style="opacity:0.314" fill="#82b8f4" d="M 29.5,271.5 C 36.2473,284.976 43.5806,298.309 51.5,311.5C 50.5041,311.586 49.6708,311.252 49,310.5C 45.5859,304.003 41.9192,297.67 38,291.5C 34.6705,285.002 31.8372,278.335 29.5,271.5 Z"/></g>
<g><path style="opacity:0.02" fill="#7fbdff" d="M 453.5,289.5 C 452.921,292.331 451.588,294.664 449.5,296.5C 449.998,293.674 451.331,291.34 453.5,289.5 Z"/></g>
<g><path style="opacity:0.243" fill="#7ebefe" d="M 449.5,296.5 C 449.573,298.027 448.906,299.027 447.5,299.5C 447.427,297.973 448.094,296.973 449.5,296.5 Z"/></g>
<g><path style="opacity:0.18" fill="#79b6fc" d="M 51.5,311.5 C 52.8699,311.856 53.8699,312.69 54.5,314C 56.4089,317.066 58.0755,320.232 59.5,323.5C 55.8442,320.197 53.1775,316.197 51.5,311.5 Z"/></g>
<g><path style="opacity:0.035" fill="#82befd" d="M 59.5,323.5 C 63.9225,327.587 67.5892,332.254 70.5,337.5C 65.871,333.568 62.2044,328.901 59.5,323.5 Z"/></g>
<g><path style="opacity:0.067" fill="#7ab3f1" d="M 443.5,305.5 C 439.442,315.55 433.442,324.216 425.5,331.5C 431.117,322.553 437.117,313.886 443.5,305.5 Z"/></g>
<g><path style="opacity:0.129" fill="#7bb6f6" d="M 424.5,332.5 C 424.262,334.404 423.262,335.738 421.5,336.5C 421.738,334.596 422.738,333.262 424.5,332.5 Z"/></g>
<g><path style="opacity:0.125" fill="#6cb6ff" d="M 70.5,337.5 C 72.5869,338.585 73.9202,340.251 74.5,342.5C 72.4131,341.415 71.0798,339.749 70.5,337.5 Z"/></g>
<g><path style="opacity:0.043" fill="#8fc2f9" d="M 74.5,342.5 C 78.8241,347.125 83.1574,351.792 87.5,356.5C 87.5,356.833 87.5,357.167 87.5,357.5C 82.0524,353.391 77.7191,348.391 74.5,342.5 Z"/></g>
<g><path style="opacity:0.188" fill="#79b3f3" d="M 415.5,344.5 C 411.545,349.627 407.378,354.627 403,359.5C 400.584,362.423 397.75,364.757 394.5,366.5C 399.1,360.725 403.934,355.059 409,349.5C 410.777,347.21 412.944,345.543 415.5,344.5 Z"/></g>
<g><path style="opacity:0.11" fill="#58acfb" d="M 87.5,356.5 C 96.8333,365.167 105.833,374.167 114.5,383.5C 104.887,375.555 95.8869,366.889 87.5,357.5C 87.5,357.167 87.5,356.833 87.5,356.5 Z"/></g>
<g><path style="opacity:0.212" fill="#7bb5f2" d="M 386.5,374.5 C 385.408,377.063 383.742,379.23 381.5,381C 376.953,384.761 372.286,388.261 367.5,391.5C 373.53,385.469 379.863,379.802 386.5,374.5 Z"/></g>
<g><path style="opacity:0.125" fill="#6aacf1" d="M 367.5,391.5 C 366.089,393.914 364.089,395.581 361.5,396.5C 362.911,394.086 364.911,392.419 367.5,391.5 Z"/></g>
<g><path style="opacity:0.059" fill="#7ebbfc" d="M 114.5,383.5 C 122.737,389.461 130.403,396.127 137.5,403.5C 133.012,399.856 128.345,396.356 123.5,393C 120.296,389.964 117.296,386.797 114.5,383.5 Z"/></g>
<g><path style="opacity:0.259" fill="#69b1fb" d="M 361.5,396.5 C 360.415,398.587 358.749,399.92 356.5,400.5C 357.585,398.413 359.251,397.08 361.5,396.5 Z"/></g>
<g><path style="opacity:0.918" fill="#86c0ff" d="M 137.5,403.5 C 141.463,406.129 145.129,409.129 148.5,412.5C 143.957,410.628 140.29,407.628 137.5,403.5 Z"/></g>
<g><path style="opacity:0.102" fill="#71aff2" d="M 352.5,404.5 C 345.024,411.978 336.691,418.311 327.5,423.5C 333.977,417.864 340.644,412.364 347.5,407C 349.078,405.906 350.745,405.072 352.5,404.5 Z"/></g>
<g><path style="opacity:0.263" fill="#7ebdfe" d="M 148.5,412.5 C 151.891,413.529 154.557,415.529 156.5,418.5C 153.467,416.984 150.8,414.984 148.5,412.5 Z"/></g>
<g><path style="opacity:0.663" fill="#93c2f7" d="M 156.5,418.5 C 161.786,421.788 166.786,425.454 171.5,429.5C 165.652,426.985 160.652,423.318 156.5,418.5 Z"/></g>
<g><path style="opacity:0.157" fill="#6baff4" d="M 177.5,433.5 C 187.776,440.313 198.11,447.146 208.5,454C 210.063,454.759 211.063,455.926 211.5,457.5C 199.311,450.634 187.978,442.634 177.5,433.5 Z"/></g>
<g><path style="opacity:0.149" fill="#78b9fc" d="M 312.5,434.5 C 311.375,436.129 310.041,437.629 308.5,439C 299.778,445.024 290.778,450.524 281.5,455.5C 291.555,448.116 301.888,441.116 312.5,434.5 Z"/></g>
<g><path style="opacity:0.976" fill="#3e9bfb" d="M 225.5,463.5 C 231.583,464.865 237.75,465.865 244,466.5C 250.154,465.65 256.32,464.983 262.5,464.5C 252.475,467.945 242.141,468.445 231.5,466C 229.277,465.434 227.277,464.6 225.5,463.5 Z"/></g>
</svg>
